<svg width="1270" height="876" viewBox="0 0 1270 876" fill="none" xmlns="http://www.w3.org/2000/svg">
<path d="M180.457 646.42C197.644 646.42 210.8 651.3 219.924 661.061C229.048 670.821 233.609 684.614 233.609 702.438V819.563C233.609 837.387 229.048 851.18 219.924 860.94C210.8 870.701 197.644 875.581 180.457 875.581C163.27 875.581 150.114 870.701 140.99 860.94C131.866 851.18 127.305 837.387 127.305 819.563V702.438C127.305 684.614 131.866 670.821 140.99 661.061C150.114 651.3 163.27 646.42 180.457 646.42ZM291.024 822.109C291.024 829.748 292.51 835.265 295.48 838.66C298.663 842.055 303.119 843.753 308.848 843.753C314.577 843.753 318.927 842.055 321.897 838.66C325.08 835.265 326.672 829.748 326.672 822.109V649.603H360.409V819.563C360.409 837.599 355.954 851.497 347.042 861.258C338.13 870.806 325.187 875.581 308.212 875.581C291.237 875.581 278.294 870.806 269.382 861.258C260.47 851.497 256.014 837.599 256.014 819.563V649.603H291.024V822.109ZM707.833 822.109C707.833 829.748 709.318 835.265 712.289 838.66C715.472 842.055 719.927 843.753 725.656 843.753C731.385 843.753 735.735 842.055 738.706 838.66C741.889 835.265 743.48 829.748 743.48 822.109V649.603H777.218V819.563C777.218 837.599 772.762 851.497 763.851 861.258C754.939 870.806 741.995 875.581 725.021 875.581C708.046 875.581 695.102 870.806 686.19 861.258C677.279 851.497 672.822 837.599 672.822 819.563V649.603H707.833V822.109ZM951.827 822.109C951.827 829.748 953.313 835.265 956.283 838.66C959.466 842.055 963.922 843.753 969.65 843.753C975.379 843.753 979.73 842.055 982.7 838.66C985.883 835.265 987.475 829.748 987.475 822.109V649.603H1021.21V819.563C1021.21 837.599 1016.76 851.497 1007.84 861.258C998.933 870.806 985.989 875.581 969.015 875.581C952.04 875.581 939.096 870.806 930.185 861.258C921.273 851.497 916.816 837.599 916.816 819.563V649.603H951.827V822.109ZM61.1094 731.4H61.7461L85.6172 649.603H119.673L77.3418 777.551V872.397H42.3311V777.551L0 649.603H37.2383L61.1094 731.4ZM437.226 649.603C455.261 649.603 468.416 653.847 476.691 662.334C484.967 670.609 489.104 683.446 489.104 700.846V714.531C489.104 737.66 481.466 752.301 466.188 758.454V759.091C474.676 761.637 480.618 766.836 484.013 774.687C487.62 782.537 489.423 793.041 489.423 806.196V845.344C489.423 851.709 489.635 856.908 490.06 860.939C490.484 864.759 491.545 868.578 493.242 872.397H457.595C456.322 868.79 455.473 865.396 455.049 862.213C454.624 859.03 454.412 853.301 454.412 845.026V804.286C454.412 794.101 452.714 786.993 449.319 782.962C446.137 778.93 440.514 776.914 432.451 776.914H420.356V872.397H385.346V649.603H437.226ZM657.309 681.431H599.7V743.495H644.896V775.323H599.7V872.397H564.689V649.603H657.309V681.431ZM901.139 681.431H864.537V872.397H829.526V681.431H792.924V649.603H901.139V681.431ZM1098.03 649.603C1116.06 649.603 1129.22 653.847 1137.49 662.334C1145.77 670.609 1149.91 683.446 1149.91 700.846V714.531C1149.91 737.66 1142.27 752.301 1126.99 758.454V759.091C1135.48 761.637 1141.42 766.836 1144.82 774.687C1148.42 782.537 1150.23 793.041 1150.23 806.196V845.344C1150.23 851.709 1150.44 856.908 1150.86 860.939C1151.29 864.759 1152.35 868.578 1154.04 872.397H1118.4C1117.12 868.79 1116.28 865.396 1115.85 862.213C1115.43 859.03 1115.21 853.301 1115.21 845.026V804.286C1115.21 794.101 1113.52 786.993 1110.12 782.962C1106.94 778.93 1101.32 776.914 1093.25 776.914H1081.16V872.397H1046.15V649.603H1098.03ZM1270 681.431H1209.53V740.312H1257.59V772.14H1209.53V840.57H1270V872.397H1174.52V649.603H1270V681.431ZM180.457 678.248C168.363 678.248 162.315 685.568 162.315 700.209V821.792C162.316 836.433 168.363 843.753 180.457 843.753C192.552 843.753 198.6 836.433 198.6 821.792V700.209C198.6 685.568 192.552 678.248 180.457 678.248ZM420.356 745.086H433.088C440.09 745.086 445.289 743.283 448.684 739.676C452.291 736.069 454.094 730.021 454.094 721.533V704.347C454.094 696.284 452.608 690.448 449.638 686.841C446.879 683.234 442.424 681.431 436.271 681.431H420.356V745.086ZM1081.16 745.086H1093.89C1100.89 745.086 1106.09 743.283 1109.49 739.676C1113.09 736.069 1114.9 730.021 1114.9 721.533V704.347C1114.9 696.284 1113.41 690.448 1110.44 686.841C1107.68 683.234 1103.23 681.431 1097.07 681.431H1081.16V745.086Z" fill="white"/>
<path d="M793.74 288.001L513.709 568V423.831L649.555 288.001L513.709 152.17V8L793.74 288.001ZM455.449 152.553L319.986 288.001L455.449 423.448V567.617L175.801 288.001L455.449 8.38281V152.553Z" fill="#F94500"/>
<path d="M1030 8H1270V88H1118V236H1238.8V316H1118V488H1270V568H1030V8Z" fill="white"/>
<path d="M129.5 576C87.3992 576 55.1574 564 32.7747 540C10.9249 516 0 482.133 0 438.4V137.6C0 93.8667 10.9249 60 32.7747 36C55.1574 12 87.3992 0 129.5 0C171.601 0 203.576 12 225.426 36C247.809 60 259 90.8667 259 134.6V134.8L175.864 217.8V132C175.864 97.3333 161.209 80 131.898 80C102.587 80 87.9321 97.3333 87.9321 132V444.8C87.9321 478.933 102.587 496 131.898 496C161.209 496 175.864 478.933 175.864 444.8V379.2L176.012 358.2L259 441.2V442.4C259 486.133 247.809 516 225.426 540C203.576 564 171.601 576 129.5 576Z" fill="white"/>
<path d="M840.096 8H706V131L793.801 218V88H838.5C852.867 88 863.776 92.2667 871.226 100.8C879.208 109.333 883.199 123.2 883.199 142.4V433.6C883.199 452.8 879.208 466.667 871.226 475.2C863.776 483.733 852.867 488 838.5 488H793.801V357L706 445V568H840.096C883.731 568 916.457 556.267 938.274 532.8C960.091 509.333 971 474.933 971 429.6V146.4C971 101.067 960.091 66.6667 938.274 43.2C916.457 19.7334 883.731 8 840.096 8Z" fill="white"/>
</svg>
