<svg width="1270" height="230" viewBox="0 0 1270 230" fill="none" xmlns="http://www.w3.org/2000/svg">
<path d="M180.457 0C197.644 0 210.8 4.88016 219.924 14.6406C229.048 24.4012 233.609 38.1939 233.609 56.0176V173.144C233.609 190.967 229.048 204.76 219.924 214.521C210.8 224.281 197.644 229.161 180.457 229.161C163.27 229.161 150.114 224.281 140.99 214.521C131.866 204.76 127.305 190.967 127.305 173.144V56.0176C127.305 38.194 131.866 24.4012 140.99 14.6406C150.114 4.88011 163.27 4.58048e-05 180.457 0ZM291.024 175.689C291.024 183.328 292.51 188.845 295.48 192.24C298.663 195.635 303.119 197.333 308.848 197.333C314.577 197.333 318.927 195.635 321.897 192.24C325.08 188.845 326.672 183.328 326.672 175.689V3.18262H360.409V173.144C360.409 191.179 355.954 205.077 347.042 214.838C338.13 224.386 325.187 229.161 308.212 229.161C291.237 229.161 278.294 224.386 269.382 214.838C260.47 205.077 256.014 191.179 256.014 173.144V3.18262H291.024V175.689ZM707.833 175.689C707.833 183.328 709.318 188.845 712.289 192.24C715.472 195.635 719.927 197.333 725.656 197.333C731.385 197.333 735.735 195.635 738.706 192.24C741.889 188.845 743.48 183.328 743.48 175.689V3.18262H777.218V173.144C777.218 191.179 772.762 205.077 763.851 214.838C754.939 224.386 741.995 229.161 725.021 229.161C708.046 229.161 695.102 224.386 686.19 214.838C677.279 205.077 672.822 191.179 672.822 173.144V3.18262H707.833V175.689ZM951.827 175.689C951.827 183.328 953.313 188.845 956.283 192.24C959.466 195.635 963.922 197.333 969.65 197.333C975.379 197.333 979.73 195.635 982.7 192.24C985.883 188.845 987.475 183.328 987.475 175.689V3.18262H1021.21V173.144C1021.21 191.179 1016.76 205.077 1007.84 214.838C998.933 224.386 985.989 229.161 969.015 229.161C952.04 229.161 939.096 224.386 930.185 214.838C921.273 205.077 916.816 191.179 916.816 173.144V3.18262H951.827V175.689ZM61.1094 84.9805H61.7461L85.6172 3.18262H119.673L77.3418 131.131V225.978H42.3311V131.131L0 3.18262H37.2383L61.1094 84.9805ZM437.226 3.18262C455.261 3.18267 468.416 7.42673 476.691 15.9141C484.967 24.1893 489.104 37.0265 489.104 54.4258V68.1113C489.104 91.2396 481.466 105.881 466.188 112.034V112.671C474.676 115.217 480.618 120.416 484.013 128.267C487.62 136.117 489.423 146.621 489.423 159.776V198.924C489.423 205.289 489.635 210.488 490.06 214.52C490.484 218.339 491.545 222.158 493.242 225.978H457.595C456.322 222.371 455.473 218.976 455.049 215.793C454.624 212.61 454.412 206.881 454.412 198.606V157.866C454.412 147.681 452.714 140.574 449.319 136.542C446.137 132.51 440.514 130.494 432.451 130.494H420.356V225.978H385.346V3.18262H437.226ZM657.309 35.0107H599.7V97.0752H644.896V128.903H599.7V225.978H564.689V3.18262H657.309V35.0107ZM901.139 35.0107H864.537V225.978H829.526V35.0107H792.924V3.18262H901.139V35.0107ZM1098.03 3.18262C1116.06 3.18262 1129.22 7.42665 1137.49 15.9141C1145.77 24.1893 1149.91 37.0265 1149.91 54.4258V68.1113C1149.91 91.2396 1142.27 105.881 1126.99 112.034V112.671C1135.48 115.217 1141.42 120.416 1144.82 128.267C1148.42 136.117 1150.23 146.621 1150.23 159.776V198.924C1150.23 205.289 1150.44 210.488 1150.86 214.52C1151.29 218.339 1152.35 222.158 1154.04 225.978H1118.4C1117.12 222.371 1116.28 218.976 1115.85 215.793C1115.43 212.61 1115.21 206.881 1115.21 198.606V157.866C1115.21 147.681 1113.52 140.574 1110.12 136.542C1106.94 132.511 1101.32 130.494 1093.25 130.494H1081.16V225.978H1046.15V3.18262H1098.03ZM1270 35.0107H1209.53V93.8926H1257.59V125.72H1209.53V194.15H1270V225.978H1174.52V3.18262H1270V35.0107ZM180.457 31.8281C168.363 31.8282 162.315 39.1484 162.315 53.7891V175.372C162.316 190.013 168.363 197.333 180.457 197.333C192.552 197.333 198.6 190.013 198.6 175.372V53.7891C198.6 39.1483 192.552 31.8281 180.457 31.8281ZM420.356 98.666H433.088C440.09 98.666 445.289 96.863 448.684 93.2559C452.291 89.6487 454.094 83.6007 454.094 75.1133V57.9268C454.094 49.8637 452.608 44.0281 449.638 40.4209C446.879 36.8141 442.424 35.0108 436.271 35.0107H420.356V98.666ZM1081.16 98.666H1093.89C1100.89 98.666 1106.09 96.863 1109.49 93.2559C1113.09 89.6487 1114.9 83.6007 1114.9 75.1133V57.9268C1114.9 49.8637 1113.41 44.0281 1110.44 40.4209C1107.68 36.814 1103.23 35.0108 1097.07 35.0107H1081.16V98.666Z" fill="black"/>
</svg>
