<svg width="275" height="115" viewBox="0 0 275 115" fill="none" xmlns="http://www.w3.org/2000/svg">
<path d="M145.143 35.8818L109.261 71.7637V53.2881L126.667 35.8818L109.261 18.4756V0L145.143 35.8818ZM101.795 18.5254L84.4375 35.8828L101.795 53.2402V71.7148L65.9629 35.8828L101.795 0.0507812V18.5254Z" fill="#f26522"/>
<path d="M274 59.0555V71.0382H224.709V0.726074H273.1V12.7089H238.506V29.6432H268.401V40.7347H238.506V59.0555H274Z" fill="white"/>
<path d="M154.396 71.0382V0.726074H180.234C187.979 0.726074 194.455 2.31057 199.663 5.47957C204.87 8.58255 208.776 12.8079 211.38 18.1556C213.983 23.4372 215.285 29.3131 215.285 35.7831C215.285 42.9134 213.85 49.1193 210.979 54.401C208.108 59.6827 204.036 63.776 198.761 66.6809C193.554 69.5858 187.378 71.0382 180.234 71.0382H154.396ZM201.365 35.7831C201.365 31.2277 200.53 27.2334 198.861 23.8004C197.192 20.3012 194.789 17.5944 191.651 15.6798C188.513 13.6992 184.707 12.7089 180.234 12.7089H168.217V59.0555H180.234C184.774 59.0555 188.613 58.0652 191.751 56.0845C194.889 54.0379 197.259 51.265 198.861 47.7659C200.53 44.2008 201.365 40.2065 201.365 35.7831Z" fill="white"/>
<path d="M0 35.2839C0 30.9649 0.768937 26.7456 2.30681 22.6259C3.91155 18.4398 6.21836 14.6524 9.22725 11.2636C12.2361 7.80841 15.9137 5.08411 20.2598 3.09073C24.606 1.03089 29.5539 0.000976562 35.1037 0.000976562C41.6563 0.000976562 47.3064 1.42957 52.0537 4.28676C56.8679 7.14395 60.4452 10.8649 62.7854 15.4497L52.154 22.7256C50.9505 20.0677 49.3791 17.9747 47.4401 16.4464C45.501 14.8517 43.4282 13.7553 41.2217 13.1573C39.0152 12.4929 36.8421 12.1606 34.7025 12.1606C31.2255 12.1606 28.1832 12.8583 25.5755 14.2537C23.0347 15.6491 20.895 17.4763 19.1566 19.7355C17.4181 21.9947 16.1143 24.5196 15.245 27.3104C14.4426 30.1011 14.0415 32.8918 14.0415 35.6826C14.0415 38.8056 14.5429 41.8289 15.5459 44.7525C16.5489 47.6097 17.953 50.1679 19.7583 52.427C21.6305 54.6198 23.8371 56.3806 26.3779 57.7095C28.9856 58.972 31.8273 59.6032 34.9031 59.6032C37.1096 59.6032 39.3495 59.2378 41.6229 58.5069C43.8963 57.776 46.0025 56.6131 47.9416 55.0184C49.8806 53.4237 51.3851 51.3639 52.4549 48.8389L63.7884 55.3174C62.3842 58.8391 60.0774 61.8292 56.8679 64.2877C53.7253 66.7462 50.1815 68.6067 46.2365 69.8692C42.2915 71.1316 38.38 71.7629 34.5019 71.7629C29.4202 71.7629 24.7732 70.733 20.5607 68.6731C16.3483 66.5469 12.7042 63.7561 9.62843 60.3009C6.61955 56.7793 4.24587 52.8589 2.5074 48.5399C0.835801 44.1545 0 39.7358 0 35.2839Z" fill="white"/>
<path d="M274 108.855V113.497H255.088V86.2603H273.655V90.902H260.382V97.4618H271.852V101.758H260.382V108.855H274Z" fill="white"/>
<path d="M229.575 113.497V86.2603H241.621C242.874 86.2603 244.025 86.516 245.073 87.0275C246.147 87.539 247.068 88.2295 247.835 89.099C248.628 89.9685 249.229 90.9404 249.638 92.0145C250.073 93.0886 250.29 94.1883 250.29 95.3136C250.29 96.4644 250.086 97.5769 249.677 98.651C249.293 99.6996 248.73 100.62 247.989 101.413C247.247 102.206 246.378 102.82 245.38 103.254L251.595 113.497H245.764L240.163 104.367H234.869V113.497H229.575ZM234.869 99.7251H241.506C242.171 99.7251 242.759 99.5333 243.27 99.1497C243.782 98.7405 244.191 98.2035 244.498 97.5385C244.805 96.8736 244.958 96.1319 244.958 95.3136C244.958 94.444 244.779 93.6896 244.421 93.0502C244.063 92.3853 243.603 91.861 243.04 91.4774C242.503 91.0938 241.915 90.902 241.275 90.902H234.869V99.7251Z" fill="white"/>
<path d="M212.352 113.689C210.178 113.689 208.324 113.331 206.79 112.615C205.281 111.873 204.053 110.863 203.107 109.584C202.187 108.305 201.509 106.86 201.074 105.249C200.639 103.612 200.422 101.912 200.422 100.147V86.2603H205.716V100.147C205.716 101.272 205.818 102.372 206.023 103.446C206.253 104.495 206.624 105.441 207.135 106.285C207.647 107.129 208.324 107.794 209.168 108.28C210.012 108.766 211.061 109.009 212.314 109.009C213.593 109.009 214.654 108.766 215.498 108.28C216.367 107.768 217.045 107.091 217.531 106.247C218.043 105.403 218.413 104.456 218.644 103.408C218.874 102.334 218.989 101.247 218.989 100.147V86.2603H224.244V100.147C224.244 102.014 224.014 103.766 223.554 105.403C223.119 107.039 222.416 108.484 221.444 109.737C220.498 110.965 219.27 111.937 217.761 112.653C216.252 113.343 214.449 113.689 212.352 113.689Z" fill="white"/>
<path d="M197.425 90.902H188.717V113.497H183.461V90.902H174.753V86.2603H197.425V90.902Z" fill="white"/>
<path d="M159.831 113.689C157.657 113.689 155.803 113.331 154.268 112.615C152.76 111.873 151.532 110.863 150.586 109.584C149.665 108.305 148.987 106.86 148.553 105.249C148.118 103.612 147.9 101.912 147.9 100.147V86.2603H153.194V100.147C153.194 101.272 153.297 102.372 153.501 103.446C153.731 104.495 154.102 105.441 154.614 106.285C155.125 107.129 155.803 107.794 156.647 108.28C157.491 108.766 158.539 109.009 159.792 109.009C161.071 109.009 162.133 108.766 162.976 108.28C163.846 107.768 164.524 107.091 165.01 106.247C165.521 105.403 165.892 104.456 166.122 103.408C166.352 102.334 166.467 101.247 166.467 100.147V86.2603H171.723V100.147C171.723 102.014 171.493 103.766 171.032 105.403C170.598 107.039 169.894 108.484 168.923 109.737C167.976 110.965 166.749 111.937 165.24 112.653C163.731 113.343 161.928 113.689 159.831 113.689Z" fill="white"/>
<path d="M126.256 113.497V86.2603H144.554V90.902H131.55V97.9221H142.368V102.219H131.55V113.497H126.256Z" fill="white"/>
<path d="M84.0156 113.69V86.4531H96.0612C97.3143 86.4531 98.4651 86.7089 99.5137 87.2204C100.588 87.7318 101.508 88.4223 102.276 89.2919C103.069 90.1614 103.67 91.1332 104.079 92.2074C104.513 93.2815 104.731 94.3812 104.731 95.5064C104.731 96.6573 104.526 97.7698 104.117 98.8439C103.733 99.8924 103.171 100.813 102.429 101.606C101.688 102.399 100.818 103.012 99.8206 103.447L106.035 113.69H100.204L94.6034 104.56H89.3095V113.69H84.0156ZM89.3095 99.918H95.9461C96.611 99.918 97.1992 99.7262 97.7107 99.3426C98.2222 98.9334 98.6314 98.3963 98.9383 97.7314C99.2452 97.0665 99.3986 96.3248 99.3986 95.5064C99.3986 94.6369 99.2196 93.8825 98.8616 93.2431C98.5035 92.5782 98.0432 92.0539 97.4805 91.6703C96.9435 91.2867 96.3553 91.0949 95.7159 91.0949H89.3095V99.918Z" fill="white"/>
<path d="M66.7908 113.882C64.617 113.882 62.7628 113.524 61.2284 112.807C59.7195 112.066 58.4919 111.056 57.5457 109.777C56.625 108.498 55.9473 107.053 55.5125 105.442C55.0777 103.805 54.8604 102.105 54.8604 100.34V86.4531H60.1542V100.34C60.1542 101.465 60.2565 102.565 60.4611 103.639C60.6913 104.688 61.0621 105.634 61.5736 106.478C62.0851 107.322 62.7628 107.987 63.6068 108.473C64.4507 108.959 65.4993 109.201 66.7524 109.201C68.0312 109.201 69.0925 108.959 69.9364 108.473C70.806 107.961 71.4837 107.283 71.9696 106.439C72.4811 105.596 72.8519 104.649 73.0821 103.601C73.3123 102.527 73.4273 101.44 73.4273 100.34V86.4531H78.6829V100.34C78.6829 102.207 78.4527 103.959 77.9924 105.596C77.5576 107.232 76.8543 108.677 75.8825 109.93C74.9362 111.158 73.7087 112.13 72.1998 112.846C70.6909 113.536 68.8879 113.882 66.7908 113.882Z" fill="white"/>
<path d="M37.8727 113.881C35.8779 113.881 34.0621 113.497 32.4254 112.73C30.8142 111.962 29.4204 110.927 28.244 109.622C27.0931 108.293 26.198 106.809 25.5586 105.172C24.9193 103.51 24.5996 101.809 24.5996 100.07C24.5996 98.2546 24.9321 96.5283 25.597 94.8916C26.2875 93.2293 27.221 91.7587 28.3974 90.48C29.5994 89.1757 31.006 88.1528 32.6172 87.4111C34.2539 86.6439 36.0441 86.2603 37.9878 86.2603C39.957 86.2603 41.7472 86.6567 43.3584 87.4495C44.9952 88.2423 46.389 89.3036 47.5398 90.6335C48.6907 91.9633 49.5858 93.4466 50.2251 95.0834C50.8645 96.7202 51.1842 98.4081 51.1842 100.147C51.1842 101.937 50.8517 103.664 50.1868 105.326C49.5218 106.963 48.5884 108.433 47.3864 109.737C46.21 111.016 44.8034 112.026 43.1666 112.768C41.5554 113.51 39.7908 113.881 37.8727 113.881ZM29.9702 100.07C29.9702 101.247 30.1492 102.385 30.5073 103.485C30.8653 104.584 31.3768 105.569 32.0418 106.438C32.7323 107.282 33.5634 107.96 34.5353 108.472C35.5327 108.957 36.6579 109.2 37.9111 109.2C39.1898 109.2 40.3279 108.945 41.3253 108.433C42.3227 107.896 43.1538 107.193 43.8188 106.323C44.4837 105.428 44.9824 104.444 45.3149 103.369C45.6729 102.27 45.8519 101.17 45.8519 100.07C45.8519 98.894 45.6601 97.7687 45.2765 96.6946C44.9185 95.5949 44.3942 94.6231 43.7037 93.7791C43.0387 92.9096 42.2076 92.2319 41.2102 91.7459C40.2383 91.2345 39.1386 90.9787 37.9111 90.9787C36.6068 90.9787 35.4559 91.2472 34.4585 91.7843C33.4867 92.2958 32.6683 92.9863 32.0034 93.8558C31.3385 94.7254 30.827 95.6972 30.4689 96.7713C30.1365 97.8454 29.9702 98.9451 29.9702 100.07Z" fill="white"/>
<path d="M5.75423 86.4531L12.4675 99.2659L19.2959 86.4531H25.0117L15.1145 104.176V113.69H9.85892V104.099L0 86.4531H5.75423Z" fill="white"/>
</svg>
