<svg width="259" height="576" viewBox="0 0 259 576" fill="none" xmlns="http://www.w3.org/2000/svg">
<path d="M129.5 576C87.3992 576 55.1574 564 32.7747 540C10.9249 516 0 482.133 0 438.4V137.6C0 93.8667 10.9249 60 32.7747 36C55.1574 12 87.3992 0 129.5 0C171.601 0 203.576 12 225.426 36C247.809 60 259 90.8667 259 134.6V134.8L175.864 217.8V132C175.864 97.3333 161.209 80 131.898 80C102.587 80 87.9321 97.3333 87.9321 132V444.8C87.9321 478.933 102.587 496 131.898 496C161.209 496 175.864 478.933 175.864 444.8V379.2L176.012 358.2L259 441.2V442.4C259 486.133 247.809 516 225.426 540C203.576 564 171.601 576 129.5 576Z" fill="black"/>
</svg>
