<svg width="265" height="560" viewBox="0 0 265 560" fill="none" xmlns="http://www.w3.org/2000/svg">
<path d="M134.096 0H0V123L87.8012 210V80H132.5C146.867 80 157.776 84.2667 165.226 92.8C173.208 101.333 177.199 115.2 177.199 134.4V425.6C177.199 444.8 173.208 458.667 165.226 467.2C157.776 475.733 146.867 480 132.5 480H87.8012V349L0 437V560H134.096C177.731 560 210.457 548.267 232.274 524.8C254.091 501.333 265 466.933 265 421.6V138.4C265 93.0667 254.091 58.6667 232.274 35.2C210.457 11.7334 177.731 0 134.096 0Z" fill="black"/>
</svg>
